HIERARCHY
ROOT Hips
{
	OFFSET 0.00000 0.00000 0.00000
	CHANNELS 6 Xposition Yposition Zposition Zrotation Yrotation Xrotation 
	JOINT RightUpLegDummy
	{
		OFFSET 0 0 0
		CHANNELS 3 Zrotation Yrotation Xrotation
		JOINT RightUpLeg
		{
			OFFSET -3.52197 -3.41223 0.04002
			CHANNELS 3 Zrotation Yrotation Xrotation
			JOINT RightLeg
			{
				OFFSET 0.00006 -17.42390 1.60435
				CHANNELS 3 Zrotation Yrotation Xrotation
				JOINT RightFoot
				{
					OFFSET 0.06153 -16.50078 -1.63901
					CHANNELS 3 Zrotation Yrotation Xrotation
					JOINT RightToes
					{
						OFFSET 0.00298 -1.73825 3.34613
						CHANNELS 3 Zrotation Yrotation Xrotation
						End Site
						{
							OFFSET 0.00480 -0.05416 3.85043
						}
					}
				}
			}
		}
	}
	JOINT SpineDummy
	{
		OFFSET 0 0 0
		CHANNELS 3 Zrotation Yrotation Xrotation
		JOINT Spine
		{
			OFFSET 0.00000 4.68130 0.00000
			CHANNELS 3 Zrotation Yrotation Xrotation
			JOINT Spine1
			{
				OFFSET -0.00000 10.10138 0.05002
				CHANNELS 3 Zrotation Yrotation Xrotation
				JOINT HEadDummy
				{
					OFFSET 0 0 0
					CHANNELS 3 Zrotation Yrotation Xrotation
					JOINT Head
					{
						OFFSET -0.00000 3.43865 0.00438
						CHANNELS 3 Zrotation Yrotation Xrotation
						End Site
						{
							OFFSET -0.11417 5.02924 0.98962
						}
					}
				}
				JOINT LeftShoulder1Dummy
				{
					OFFSET 0 0 0
					CHANNELS 3 Zrotation Yrotation Xrotation
					JOINT LeftShoulder1
					{
						OFFSET 3.53937 -0.14262 -0.08662
						CHANNELS 3 Zrotation Yrotation Xrotation
						JOINT LeftArm
						{
							OFFSET 4.04833 -0.00133 0.12681
							CHANNELS 3 Zrotation Yrotation Xrotation
							JOINT LeftForeArm
							{
								OFFSET 10.33880 -0.01036 -0.55515
								CHANNELS 3 Zrotation Yrotation Xrotation
								JOINT LeftHand
								{
									OFFSET 8.69677 0.07543 0.40060
									CHANNELS 3 Zrotation Yrotation Xrotation
									End Site
									{
										OFFSET 5.28377 -0.21905 0.59205
									}
								}
							}
						}
					}
				}
				JOINT RightShoulderDummy
				{
					OFFSET 0 0 0
					CHANNELS 3 Zrotation Yrotation Xrotation
					JOINT RightShoulder
					{
						OFFSET -3.53937 -0.14262 -0.08660
						CHANNELS 3 Zrotation Yrotation Xrotation
						JOINT RightArm
						{
							OFFSET -4.04833 -0.00133 0.12683
							CHANNELS 3 Zrotation Yrotation Xrotation
							JOINT RightForeArm
							{
								OFFSET -10.37987 -0.01039 -0.55511
								CHANNELS 3 Zrotation Yrotation Xrotation
								JOINT RightHand
								{
									OFFSET -8.67398 0.07538 0.40058
									CHANNELS 3 Zrotation Yrotation Xrotation
									End Site
									{
										OFFSET -5.24810 -0.21916 0.59204
									}
								}
							}
						}
					}
				}
			}
		}
	}
	JOINT LeftUpLegDummy
	{
		OFFSET 0 0 0
		CHANNELS 3 Zrotation Yrotation Xrotation
		JOINT LeftUpLeg
		{
			OFFSET 3.52197 -3.41223 0.04002
			CHANNELS 3 Zrotation Yrotation Xrotation
			JOINT LeftLeg
			{
				OFFSET -0.00012 -17.42399 1.60337
				CHANNELS 3 Zrotation Yrotation Xrotation
				JOINT LeftFoot
				{
					OFFSET -0.09972 -16.50070 -1.63802
					CHANNELS 3 Zrotation Yrotation Xrotation
					JOINT LeftToes
					{
						OFFSET -0.01575 -1.73823 3.34611
						CHANNELS 3 Zrotation Yrotation Xrotation
						End Site
						{
							OFFSET 0.03150 -0.01868 3.85031
						}
					}
				}
			}
		}
	}
}
MOTION
Frames: 9
Frame Time: 0.033333
21.3812 38.4896 -23.5395 -177.4260 34.1178 177.4900 0.0000 0.0000 0.0000 3.7675 2.6387 -17.9521 -1.0212 -11.5556 0.7367 3.4474 -0.3957 2.3489 0.0000 -0.0000 0.0000 0.0000 0.0000 0.0000 0.9040 -1.5619 8.9035 4.4824 -2.4211 -0.5594 -0.0000 0.0000 -0.0000 -0.6467 2.3784 -0.9804 -0.0000 0.0000 -0.0000 -34.4946 -2.8819 2.5880 -41.6211 -16.6987 -15.8183 -11.7800 5.1838 45.4879 16.8139 -3.1038 -1.2084 -0.0000 0.0000 -0.0000 35.1253 5.2348 3.5960 40.8141 2.7501 -16.0400 10.8474 5.3963 17.7472 -10.0309 1.7452 -0.6020 0.0000 0.0000 0.0000 0.7923 5.2860 16.8712 -4.0364 -10.4062 16.2421 8.5361 0.5006 -16.7160 0.0000 0.0000 -0.0000
22.3470 38.3208 -24.6114 -176.9400 33.5335 177.0120 0.0000 0.0000 0.0000 4.6125 2.7062 -17.7548 -2.0800 -12.2688 5.4921 1.0472 -0.1461 6.4555 0.0000 -0.0000 0.0000 0.0000 0.0000 0.0000 1.9081 -1.8961 8.9285 4.0467 -2.6677 -0.3210 -0.0000 0.0000 -0.0000 -1.1247 3.0004 -1.1896 -0.0000 0.0000 -0.0000 -34.9527 -2.9202 2.6335 -41.0328 -14.4143 -17.5944 -11.5216 5.3153 40.4819 18.8507 -2.0816 -1.2016 -0.0000 0.0000 -0.0000 35.3292 5.2522 3.6213 40.6667 2.4241 -17.6778 10.5666 4.0179 16.1611 -9.3070 1.1062 -0.5104 0.0000 0.0000 0.0000 2.6814 6.4119 17.6987 -5.5423 -11.9198 20.8723 6.4440 0.3166 -15.3590 0.0000 0.0000 -0.0000
23.2343 38.2026 -25.6573 -175.7050 33.1648 177.0610 0.0000 0.0000 0.0000 5.6983 2.4873 -17.4037 -2.5478 -12.3400 9.9690 0.6261 -0.0765 7.8467 0.0000 -0.0000 0.0000 0.0000 0.0000 0.0000 3.9757 -2.1529 9.0472 3.2865 -2.7493 -0.2893 -0.0000 0.0000 -0.0000 -1.5954 3.5631 -1.1059 -0.0000 0.0000 -0.0000 -35.3619 -2.9779 2.6841 -40.7437 -12.5621 -18.8604 -11.2850 5.3958 37.0581 19.6306 -1.5129 -1.1597 -0.0000 0.0000 -0.0000 35.4534 5.2691 3.6394 40.3754 1.8565 -18.4900 10.4459 3.4424 14.2078 -9.2019 0.6319 -0.4708 0.0000 0.0000 0.0000 5.3361 7.5317 16.7447 -7.7893 -12.3351 28.0570 2.9987 0.0954 -11.8684 0.0000 0.0000 -0.0000
24.0551 38.1521 -26.6074 -174.5990 33.0602 177.3230 0.0000 0.0000 0.0000 6.7619 1.9505 -17.1303 -2.6019 -11.8339 14.0414 0.8192 -0.1019 5.5293 0.0000 -0.0000 0.0000 0.0000 0.0000 0.0000 5.6140 -2.1167 9.4449 2.8788 -2.5887 -0.6996 -0.0000 0.0000 -0.0000 -1.6507 3.7892 -0.5595 -0.0000 0.0000 -0.0000 -35.1452 -2.9857 2.6730 -41.3077 -11.6195 -19.6750 -10.8393 5.4065 36.7876 19.5296 -1.2719 -1.1140 -0.0000 0.0000 -0.0000 35.2429 5.2391 3.6083 40.2011 1.4204 -18.7438 10.4374 3.2138 13.4697 -9.5013 0.6155 -0.4852 0.0000 0.0000 0.0000 7.7613 8.7043 13.7449 -10.0581 -11.5041 37.0561 -1.7230 0.1589 -4.2751 0.0000 0.0000 -0.0000
24.8351 38.1527 -27.4192 -174.4270 32.7261 177.1210 0.0000 0.0000 0.0000 7.2637 1.3127 -16.5872 -2.7045 -11.1991 17.4162 0.3563 -0.0354 1.9693 0.0000 -0.0000 0.0000 0.0000 0.0000 0.0000 5.6413 -1.9351 10.3005 3.1669 -2.4068 -1.3453 -0.0000 0.0000 -0.0000 -1.0871 3.5391 0.0883 -0.0000 0.0000 -0.0000 -34.3046 -2.9510 2.6036 -42.4585 -11.6068 -20.0844 -10.3067 5.3710 38.7074 19.3930 -1.3406 -1.1171 -0.0000 0.0000 -0.0000 34.8746 5.1784 3.5507 40.1812 1.3432 -18.6685 10.4350 3.4087 13.7787 -9.7305 0.7756 -0.5092 0.0000 0.0000 0.0000 8.8291 9.0616 9.2351 -10.6072 -8.8735 46.0694 -6.1300 0.8659 5.5839 0.0000 0.0000 -0.0000
25.6026 38.1993 -28.1769 -174.9880 32.0425 176.3650 0.0000 0.0000 0.0000 7.1526 0.8146 -15.4230 -3.0137 -10.9590 19.8296 -0.1641 0.0127 -0.9475 0.0000 -0.0000 0.0000 0.0000 0.0000 0.0000 4.7141 -1.7699 11.3747 3.5756 -2.2737 -1.8378 -0.0000 0.0000 -0.0000 -0.0979 2.8604 0.3851 -0.0000 0.0000 -0.0000 -33.6200 -2.9224 2.5475 -43.0824 -12.1347 -20.1950 -9.9440 5.3219 41.0042 19.4726 -1.7331 -1.1855 -0.0000 0.0000 -0.0000 34.7167 5.1459 3.5235 40.1153 1.4562 -18.2687 10.5060 4.3378 13.8734 -9.8191 0.8934 -0.5230 0.0000 0.0000 0.0000 8.6605 8.6770 4.3012 -8.3759 -5.3335 53.6538 -7.4558 1.4174 11.4511 0.0000 0.0000 -0.0000
26.3744 38.3052 -29.0109 -175.5600 31.6516 175.6020 0.0000 0.0000 0.0000 7.0014 0.3333 -13.6061 -3.1784 -10.6585 21.0986 -0.1326 -0.0021 -3.2589 0.0000 -0.0000 0.0000 0.0000 0.0000 0.0000 4.2823 -1.5195 12.1266 3.2675 -1.9484 -1.9824 -0.0000 0.0000 -0.0000 0.9162 1.9837 0.3323 -0.0000 0.0000 -0.0000 -33.5344 -2.9114 2.5376 -42.7125 -12.6862 -20.2972 -9.7702 5.2870 42.5046 19.6689 -2.2813 -1.2876 -0.0000 0.0000 -0.0000 34.8089 5.1600 3.5374 39.9408 1.6640 -17.3789 10.6829 5.7102 13.2200 -9.9939 1.0939 -0.5483 0.0000 0.0000 0.0000 8.0771 8.5013 -0.3142 -4.0779 -2.1906 59.2792 -4.8923 0.8917 10.3244 0.0000 0.0000 -0.0000
27.1284 38.3958 -29.9148 -175.9360 31.9916 175.1080 0.0000 0.0000 0.0000 7.0434 -0.0332 -11.7837 -3.1003 -9.9499 22.1147 -0.1739 -0.0131 -5.6172 0.0000 -0.0000 0.0000 0.0000 0.0000 0.0000 4.6399 -1.0961 12.4212 2.2003 -1.3163 -1.8835 -0.0000 0.0000 -0.0000 1.6211 1.2147 0.2523 -0.0000 0.0000 -0.0000 -33.6167 -2.8937 2.5359 -42.0854 -12.9596 -20.6470 -9.6100 5.2849 42.6580 19.8985 -2.6447 -1.3633 -0.0000 0.0000 -0.0000 34.8891 5.1835 3.5539 39.8181 2.2043 -15.8779 10.8163 6.9374 12.2563 -10.3010 1.3586 -0.5869 0.0000 0.0000 0.0000 7.4726 8.9762 -4.4830 0.6349 -0.0032 62.5376 -1.0196 0.1159 5.7462 0.0000 0.0000 -0.0000
27.8571 38.4439 -30.8308 -176.3740 32.6488 174.6410 0.0000 0.0000 0.0000 7.0654 -0.3492 -10.1046 -3.0172 -9.0468 23.3108 -0.7704 -0.0067 -7.9106 0.0000 -0.0000 0.0000 0.0000 0.0000 0.0000 5.0286 -0.6575 12.4547 1.0690 -0.6524 -1.6074 -0.0000 0.0000 -0.0000 1.8409 0.8072 0.3286 -0.0000 0.0000 -0.0000 -33.4848 -2.8581 2.5134 -41.8372 -12.9586 -21.1760 -9.4154 5.3127 41.6210 19.9488 -2.6664 -1.3706 -0.0000 0.0000 -0.0000 34.8383 5.1922 3.5538 39.7661 3.1831 -14.1837 10.8290 7.9179 11.7221 -10.5258 1.5198 -0.6134 0.0000 0.0000 0.0000 6.7942 9.5180 -8.2799 3.6521 1.1388 63.3403 1.2089 -0.1700 2.6398 0.0000 0.0000 -0.0000
